<svg xmlns="http://www.w3.org/2000/svg" viewBox="0 0 64 64" id="ambulance"><path d="M27 26h-2v-2a1 1 0 0 0-1-1h-4a1 1 0 0 0-1 1v2h-2a1 1 0 0 0-1 1v4a1 1 0 0 0 1 1h2v2a1 1 0 0 0 1 1h4a1 1 0 0 0 1-1v-2h2a1 1 0 0 0 1-1v-4a1 1 0 0 0-1-1Zm-1 4h-2a1 1 0 0 0-1 1v2h-2v-2a1 1 0 0 0-1-1h-2v-2h2a1 1 0 0 0 1-1v-2h2v2a1 1 0 0 0 1 1h2ZM31 2h2v2h-2zM31 5h2v2h-2zM23.514 5.93l1.414-1.415 1.415 1.414-1.415 1.415zM25.636 8.05l1.414-1.414 1.414 1.414-1.414 1.414zM21 12h2v2h-2zM24 12h2v2h-2zM41 12h2v2h-2zM38 12h2v2h-2zM37.656 5.93l1.414-1.415 1.415 1.414-1.415 1.415zM35.536 8.05l1.414-1.414 1.414 1.414-1.414 1.414z"></path><path d="M61 41h-1v-9a1 1 0 0 0-1-1h-4.18l-1.6-8H56a1 1 0 0 0 1-1v-3a1 1 0 0 0-1-1H40v-2a1 1 0 0 0-1-1h-3v-2a4 4 0 0 0-8 0v2H5a1 1 0 0 0-1 1v25H3a1 1 0 0 0-1 1v6a1 1 0 0 0 1 1h1v2a1 1 0 0 0 1 1h2.08a6.991 6.991 0 0 0 13.84 0h21.16a6.991 6.991 0 0 0 13.84 0H58a1 1 0 0 0 1-1v-2h2a1 1 0 0 0 1-1v-6a1 1 0 0 0-1-1ZM40 20h15v1H40Zm0 3h11.18l1.6 8H40Zm0 10h18v1h-3a1 1 0 0 0-1 1v4a1 1 0 0 0 1 1h3v1H40Zm18 3v2h-2v-2ZM30 13a2 2 0 0 1 4 0v2h-4ZM6 17h32v24H6Zm1.08 33H6v-1h1.29a8.053 8.053 0 0 0-.21 1ZM14 56a5 5 0 1 1 5-5 5 5 0 0 1-5 5Zm28.08-6H20.92a8.053 8.053 0 0 0-.21-1h21.58a8.053 8.053 0 0 0-.21 1ZM49 56a5 5 0 1 1 5-5 5 5 0 0 1-5 5Zm8-6h-1.08a8.053 8.053 0 0 0-.21-1H57Zm3-3h-5.26a6.991 6.991 0 0 0-11.48 0H19.74a6.991 6.991 0 0 0-11.48 0H4v-4h56Z"></path><path d="M49 48a3 3 0 1 0 3 3 3 3 0 0 0-3-3zm0 4a1 1 0 1 1 1-1 1 1 0 0 1-1 1zm-35-4a3 3 0 1 0 3 3 3 3 0 0 0-3-3zm0 4a1 1 0 1 1 1-1 1 1 0 0 1-1 1z"></path></svg>