<svg xmlns="http://www.w3.org/2000/svg" viewBox="0 0 468 468" id="ambulance"><path fill="#e0e0e0" d="m27.158 150.855 13.364-46.863a15.1 15.1 0 0 1 14.524-10.955h244.359a22.663 22.663 0 0 1 15.872 6.485l49.532 48.604-337.651 2.729z"></path><path fill="#c9c9c9" d="M61.646 93.036h-6.6a15.1 15.1 0 0 0-14.524 10.955l-13.364 46.863 18.042-.146 16.446-57.672z"></path><path fill="#e0e0e0" d="M454.067 273.759 364.81 148.126a34.128 34.128 0 0 0-19.194-5.91H35.786c-4.765 0-8.628 3.868-8.628 8.639-9.788 36.24-14.746 104.174-14.746 141.716v1.323l-4.945 6.291v74.945h443.12c5.494 0 9.948-4.459 9.948-9.96l-.821-74.162a30.601 30.601 0 0 0-5.647-17.249z"></path><path fill="#c9c9c9" d="M30.412 293.894v-1.323c0-37.542 4.958-105.475 14.746-141.716v-8.639h-9.372c-4.765 0-8.628 3.868-8.628 8.639-9.788 36.24-14.746 104.173-14.746 141.716v1.323l-4.946 6.291v74.945h18v-74.945l4.946-6.291z"></path><path fill="#29b6f6" d="M226.749 174.505h105.79c5.107 0 9.876 2.558 12.705 6.816l33.365 50.222h-151.86v-57.038z"></path><path fill="#00aae5" d="M345.244 181.321a15.253 15.253 0 0 0-12.705-6.816h-11.824l37.893 57.039h20l-33.364-50.223z"></path><path fill="#333" d="M378.608 236.544H226.749a5 5 0 0 1-5-5v-57.039a5 5 0 0 1 5-5h105.79a20.209 20.209 0 0 1 16.869 9.05l33.365 50.223c2.169 3.264-.246 7.766-4.165 7.766zm-146.859-10h137.535l-28.205-42.456a10.232 10.232 0 0 0-8.54-4.583h-100.79v47.039z"></path><path fill="#ed4848" d="m458.031 281.5-445.49-.111a523.363 523.363 0 0 0-.128 11.182v1.323l-4.946 6.291v74.945h443.12c5.494 0 9.948-4.459 9.948-9.96l-.821-74.162a30.606 30.606 0 0 0-1.683-9.508z"></path><path fill="#cc4040" d="M30.412 293.894v-1.323a523 523 0 0 1 .128-11.178l-18-.005a523.363 523.363 0 0 0-.128 11.182v1.323l-4.946 6.291v74.945h18v-74.945l4.946-6.29z"></path><path fill="#ed4848" d="M270.375 93.036H224.59V65.893C224.59 53.249 234.84 43 247.483 43s22.893 10.249 22.893 22.893v27.143z"></path><path fill="#cc4040" d="M255.483 44.439a22.847 22.847 0 0 0-8-1.439c-12.643 0-22.893 10.242-22.893 22.876v27.16h16v-27.16c0-9.822 6.195-18.195 14.893-21.437z"></path><ellipse cx="92.645" cy="375.13" fill="#e5e5e5" rx="50" ry="49.87"></ellipse><ellipse cx="374.93" cy="375.13" fill="#e5e5e5" rx="50" ry="49.87"></ellipse><path fill="#29b6f6" d="M131.136 174.505h58.744v58.701h-58.744z"></path><path fill="#00aae5" d="M171.88 174.505h18v58.701h-18z"></path><path fill="#333" d="M189.88 238.206h-58.744a5 5 0 0 1-5-5v-58.701a5 5 0 0 1 5-5h58.744a5 5 0 0 1 5 5v58.701a5 5 0 0 1-5 5zm-53.744-10h48.744v-48.701h-48.744v48.701zm-37.204-29.351H83.237v-15.837a5 5 0 1 0-10 0v15.837H57.542a5 5 0 1 0 0 10h15.695v15.837a5 5 0 1 0 10 0v-15.837h15.694a5 5 0 0 0 .001-10z"></path><g fill="#333"><path d="M463 420h-18.814a5 5 0 1 0 0 10H463a5 5 0 1 0 0-10zm-211.695 0H151.136a5 5 0 1 0 0 10h100.169a5 5 0 1 0 0-10z"></path><path d="M429.691 380.13h20.895c8.242 0 14.947-6.711 14.947-15.016l-.821-74.183c-.108-7.117-2.448-14.266-6.57-20.067l-89.296-125.679c-.16-.22-50.068-49.233-50.068-49.233a27.51 27.51 0 0 0-19.374-7.916h-24.03V65.893c0-15.38-12.513-27.893-27.893-27.893S219.59 50.513 219.59 65.893v22.144H55.046c-8.934 0-16.884 5.997-19.332 14.584-4.515 15.834-9.055 31.661-13.537 47.504C13.1 184.208 8.392 243.952 7.551 281.202c-.001.027-.009.052-.01.08-.053 2.463-.128 9.713-.129 10.882l-3.876 4.932a4.997 4.997 0 0 0-1.069 3.09v74.945a5 5 0 0 0 5 5h30.417c1.498 16.457 10.31 30.834 23.155 39.87H5a5 5 0 1 0 0 10h116.136a5 5 0 0 0 5-5c0-1.937-1.113-3.597-2.723-4.427 13.297-8.994 22.463-23.632 23.993-40.443h172.762c1.498 16.457 10.31 30.834 23.155 39.87h-52.018a5 5 0 1 0 0 10h122.881a5 5 0 1 0 0-10h-7.65c12.845-9.037 21.657-23.415 23.155-39.871zM229.59 65.893c0-9.866 8.026-17.893 17.893-17.893s17.893 8.026 17.893 17.893v22.144H229.59V65.893zM45.331 105.362c1.229-4.313 5.225-7.326 9.715-7.326h244.359c4.655 0 9.048 1.795 12.37 5.054l34.814 34.162c-.325-.008-310.343-.036-310.343-.036l9.085-31.854zm-13.346 46.796c.584-2.164.615-4.942 3.801-4.942h309.831a29.006 29.006 0 0 1 15.659 4.568l88.603 124.714-432.198-.108c1.11-37.03 5.731-92.491 14.304-124.232zM92.645 420c-24.813 0-45-20.129-45-44.87s20.187-44.87 45-44.87 45 20.129 45 44.87-20.187 44.87-45 44.87zm54.761-49.87c-2.541-27.92-26.125-49.87-54.762-49.87s-52.22 21.95-54.762 49.87H12.466v-68.215l3.876-4.932a4.997 4.997 0 0 0 1.069-3.09s.014-5.36.042-7.504l436.767.109c.305 1.514.469 3.041.493 4.564l.82 74.106c0 2.735-2.219 4.96-4.947 4.96h-20.895c-2.541-27.92-26.125-49.87-54.762-49.87s-52.22 21.95-54.762 49.87H147.406zM374.93 420c-24.813 0-45-20.129-45-44.87s20.187-44.87 45-44.87 45 20.129 45 44.87-20.187 44.87-45 44.87z"></path></g></svg>