<svg xmlns="http://www.w3.org/2000/svg" width="512" height="512" id="baby"><path d="M319.24 564.692C249.165 565.993 182.92 516.549 158.948 451.67C149.551 426.238 148.535 403.275 148.506 376.714L148.562 318.181C148.568 311.689 149.369 313.916 145.482 309.628C139.699 303.25 133.22 291.68 135.145 283.13C137.578 272.324 151.753 272.423 155.597 260.739L158.442 252.344C161.589 244.064 172.727 226.979 180.853 222.321C183.007 221.086 182.958 221.414 183.048 219.035L183.116 212.021C183.123 205.213 182.763 198.19 183.57 191.423C191.544 124.545 250.711 71.4694 317.501 68.9661L317.774 68.8622C385.795 65.6718 449.738 124.085 457.314 190.79C458.433 200.642 457.468 210.687 458.05 220.588C468.05 227.335 479.223 240.128 480.977 252.338C481.866 258.527 481.418 255.094 487.031 257.118C495.837 260.293 498.749 271.757 500.309 279.873C506.326 311.187 493.71 298.904 493.636 305.781L493.568 392.727C493.38 480.006 424.876 556.305 337.045 564.207C331.123 564.739 325.179 564.689 319.24 564.692ZM240.288 299.977L240.623 300.236L240.288 299.977L234.167 293.02C225.409 282.004 219.159 266.34 218.105 252.188C217.63 245.798 217.623 248.631 213.366 244.835C207.751 239.827 205.547 232.117 206.309 224.746L206.452 223.75C207.216 218.812 209.038 215.086 211.822 210.986C214.389 207.206 213.78 206.509 214.231 201.932C218.917 154.336 256.751 120.502 302.073 111.702C304.623 103.662 307.307 98.2315 315.13 94.217C319.712 91.8652 327.862 88.9568 333.016 90.4688C338.043 91.9435 340.057 98.3278 338.231 102.916C336.881 106.31 333.44 108.044 330.44 109.765C340.809 115.344 352.541 117.423 363.474 121.66C396.699 134.535 422.243 165.144 427.114 200.675C428.491 210.72 427.412 207.139 431.719 215.695C436.233 224.66 435.215 236.906 427.857 244.071C423.975 247.852 423.019 246.91 422.352 252.374C419.903 272.445 411.696 287.275 398.116 301.534C402.812 300.595 408.414 299.739 412.882 298.047L442.294 287.912C442.889 287.731 443.266 287.478 443.75 287.098L443.815 208.146C443.905 154.293 411.613 110.7 361.772 90.8357C288.482 61.625 204.84 118.163 197.527 195.876C196.512 206.662 197.119 217.939 197.143 228.779L197.367 286.278C202.16 289.353 232.458 299.367 240.288 299.977ZM314.746 120.781C305.234 129.922 322.237 150.888 339.249 148.329C342.347 143.838 345.559 134.754 352.414 139.973C362.763 147.853 352.336 161.722 337.948 162.751C318.199 164.163 299.624 147.742 298.243 128.099C260.508 136.2 234.254 165.274 227.997 202.801C227.01 208.717 228.037 213.867 224.235 218.852C212.2 234.63 232.444 235.608 232.498 245.231C232.623 267.425 242.551 285.551 259.351 300.049C285.231 320.762 317.906 326.995 349.466 315.745C380.094 304.827 408.205 280.393 407.811 245.737C407.694 235.502 418.538 238.034 420.194 229.32C421.902 220.334 413.921 219.674 413.661 209.903L413.263 201.934C413.051 199.815 412.396 197.675 411.876 195.609C403.793 163.474 378.43 139.542 346.577 130.901C333.188 127.269 328.16 128.144 315.781 120.695L314.746 120.781ZM457.782 238.964L457.781 275.914C457.78 277.042 457.634 278.367 457.881 279.464C462.346 277.12 466.412 274.015 470.072 270.558C473.581 267.243 476.406 264.267 478.253 259.771L457.782 238.964ZM182.92 240.156C174.561 245.154 169.075 259.333 168.546 269.033C170.729 271.235 173.127 273.03 175.738 274.697L183.703 280.009C182.988 274.263 183.187 268.41 183.196 262.631L182.92 240.156ZM484.704 277.031C461.728 297.505 436.745 307.505 406.602 313.925C397.077 315.954 387.081 317.107 377.737 319.772C370.325 321.886 363.352 325.159 356.245 328.086C335.642 336.571 312.113 339.254 290.665 332.114C280.604 328.765 271.144 323.699 261.069 320.38C251.3 317.161 240.982 315.236 231.026 312.618C206.233 306.098 177.297 296.194 157.511 279.001C154.01 281.386 150.589 283.733 148.94 287.788C151.675 299.358 162.931 308.862 170.568 317.311L193.592 344.681C205.062 359.773 214.276 376.425 223.769 392.783C253.994 444.866 284.926 484.908 341.25 511.566C345.212 513.441 350.071 514.612 353.697 516.96C359.075 520.443 358.675 528.685 351.688 529.997C346.989 530.879 339.787 526.69 335.646 524.677C283.194 499.185 249.329 463.87 219.361 413.457C202.87 385.713 190.858 363.038 170.075 338.111L165.757 333.208C164.441 331.854 163.395 331.541 162.505 329.754L162.475 361.094L162.483 387.806C162.543 434.05 177.174 472.182 210.407 505.525C278.686 574.029 397.381 562.614 451.25 481.875L405.527 453.321L351.073 424.149C330.93 413.018 311.149 400.526 293.764 385.38C289.04 381.265 280.371 375.839 285.423 368.739C290.446 361.681 297.205 369.345 301.083 372.985L310.799 381.426C321.426 390.047 333.284 397.529 344.993 404.591L431.931 452.949C441.126 458.532 450.553 464.172 459.236 470.527C469.606 448.744 477.955 427.443 479.291 403.102L479.568 319.76C479.589 319.313 479.677 317.303 479.943 317.034C480.552 316.419 481.709 317.04 481.305 315.87L480.156 315.391C478.341 310.484 480.442 303.371 483.955 299.531L484.95 299.219C487.146 294.939 487.239 276.607 484.704 277.031Z" transform="scale(.8)"></path><path d="M284.449 217.656C281.846 217.974 280.485 221.351 277.92 222.138 266.119 225.761 261.862 206.879 282.478 203.533 296.018 201.798 306.469 215.48 295.91 220.426 291.04 222.707 288.84 219.195 284.695 217.737L284.449 217.656zM360.177 220.486L355.001 217.574C339.219 228.724 332.951 207.302 351.692 203.816 377.09 201.695 376.082 229.881 360.177 220.486zM337.63 273.397C316.375 289.499 282.718 265.331 303.617 258.797 311.833 258.408 315.111 269.241 325.842 263.474 328.902 261.829 331.056 259.676 334.49 258.672 344.479 260.405 344.458 267.859 337.63 273.397z" transform="scale(.8)"></path></svg>