<svg xmlns="http://www.w3.org/2000/svg" viewBox="0 0 120 120" id="doctors-bag"><path fill="#606060" d="m74.07,30.86c-1.2,0-2.18-1.12-2.18-2.51V10.26c0-1.51-1.07-2.74-2.38-2.74h-19.02c-1.31,0-2.38,1.23-2.38,2.74v18.1c0,1.39-.98,2.51-2.18,2.51s-2.18-1.12-2.18-2.51V10.26c0-4.28,3.02-7.76,6.74-7.76h19.02c3.72,0,6.74,3.48,6.74,7.76v18.1c0,1.39-.98,2.51-2.18,2.51Z"></path><path fill="#ff3939" d="m87.36,89.79h20.09c1.41,0,2.55-1.31,2.55-2.94v-40.29c0-11.39-8.03-20.63-17.93-20.63H27.93c-9.9,0-17.93,9.24-17.93,20.63v40.29c0,1.62,1.14,2.94,2.55,2.94h20.09"></path><path fill="#c62222" d="m106.73,89.79v18c0,5.36-4.17,9.71-9.3,9.71H22.57c-5.13,0-9.3-4.35-9.3-9.71v-18"></path><rect width="13.29" height="21.08" x="32.64" y="80.45" fill="#ffff7b" rx="5.02" ry="5.02"></rect><rect width="13.29" height="21.08" x="74.07" y="80.45" fill="#ffff7b" rx="5.62" ry="5.62"></rect><circle cx="60" cy="57.86" r="13.42" fill="#fff"></circle><path fill="#ff3939" d="m67.55,55.35h-5.37v-6.18c0-1.39-.98-2.51-2.18-2.51s-2.18,1.12-2.18,2.51v6.18h-5.37c-1.2,0-2.18,1.12-2.18,2.51s.98,2.51,2.18,2.51h5.37v6.17c0,1.39.98,2.51,2.18,2.51s2.18-1.12,2.18-2.51v-6.17h5.37c1.2,0,2.18-1.12,2.18-2.51s-.98-2.51-2.18-2.51Z"></path></svg>