<svg xmlns="http://www.w3.org/2000/svg" enable-background="new 0 0 64 64" viewBox="0 0 64 64" id="doctor-questions"><path d="M36.6 29.09c-.13 0-.26-.03-.38-.08-.36-.15-.6-.51-.59-.91 0 0 .03-2.27.05-4.47H33.9c-1.62 0-2.95-1.32-2.95-2.95V3.84c0-1.62 1.32-2.95 2.95-2.95h27.16C62.68.9 64 2.22 64 3.84v16.85c0 1.62-1.32 2.95-2.95 2.95h-18.6l-5.17 5.17C37.1 28.99 36.85 29.09 36.6 29.09zM33.9 2.84c-.56 0-1.01.45-1.01 1.01v16.85c0 .56.45 1.01 1.01 1.01h2.76c.26 0 .5.1.69.29.18.18.28.43.28.69 0 1.01-.01 2.13-.02 3.08l3.77-3.77c.18-.18.43-.28.69-.28h19c.55 0 1.01-.45 1.01-1.01V3.84c0-.55-.45-1.01-1.01-1.01H33.9zM18.89 39.05c-2.86 0-5.45-1.53-6.78-3.99-1.09-2.09-1.26-4.17-1.27-5.05-.59-.68-1.74-2.37-1.67-5.14.01-.54.46-.99.99-.94.54.01.96.46.94.99-.07 2.69 1.32 3.95 1.33 3.96.23.2.35.49.34.79 0 .02-.1 2.29 1.01 4.41 1.03 1.92 2.92 3.03 5.1 3.03.01 0 .02 0 .03 0 2.18-.01 4.06-1.13 5.04-3 1.12-2.16 1.03-4.42 1.02-4.44-.01-.28.09-.55.29-.74 1.06-1.05 1.46-2.21 1.39-4-.02-.54.39-.99.93-1.01.53-.01.99.39 1.01.93.09 2.17-.43 3.78-1.67 5.15-.02.88-.17 2.94-1.22 4.95-1.35 2.57-3.87 4.08-6.78 4.1C18.91 39.05 18.9 39.05 18.89 39.05z"></path><path d="M10.14 25.86c-.2 0-.4-.06-.56-.18-.25-.18-.4-.47-.4-.77L9.1 19.92c-.02-.94.21-1.88.67-2.72.3-.55.69-1.04 1.16-1.47.48-.43 1.02-.77 1.61-1 .2-.09.44-.17.68-.26 3.65-1.3 7.67-1.3 11.32 0 .25.09.48.18.71.27 1.16.47 2.14 1.34 2.75 2.46.44.8.68 1.72.68 2.64v.07l-.08 5c-.01.31-.16.6-.42.78-.26.18-.58.22-.88.12-1.6-.57-5.18-1.5-8.39-1.44-3.29.04-6.98.96-8.47 1.44C10.34 25.85 10.24 25.86 10.14 25.86zM18.88 15.44c-1.7 0-3.39.29-5.01.86-.2.07-.4.14-.59.23-.4.16-.75.38-1.06.65-.3.27-.57.6-.76.95-.3.54-.45 1.15-.43 1.75l.05 3.72c1.96-.53 4.98-1.14 7.79-1.17 3.06-.07 6.12.66 7.8 1.14l.06-3.68v-.05c0-.6-.15-1.17-.44-1.7-.4-.73-1.03-1.29-1.8-1.6-.21-.09-.42-.17-.62-.24C22.27 15.72 20.58 15.44 18.88 15.44zM18.88 63.1C18.88 63.1 18.88 63.1 18.88 63.1H.97c-.26 0-.51-.11-.69-.29-.18-.19-.28-.44-.27-.7l.36-13.46c0-.05.01-.1.02-.15.22-1.2.67-2.3 1.33-3.27 1.06-1.54 2.53-2.67 4.27-3.27 2.67-.94 6.72-2.37 6.94-2.45.26-.1.55-.08.8.04.24.13.43.35.5.62l4.69 18.13 4.76-18.1c.07-.27.25-.49.49-.62.25-.13.53-.14.79-.05.17.06 6.88 2.42 6.88 2.42 1.72.6 3.23 1.76 4.25 3.27.65.94 1.1 2.04 1.33 3.27.01.04.01.09.02.13l.74 13.46c.01.27-.08.53-.26.72-.18.19-.44.3-.7.3H18.88C18.88 63.1 18.88 63.1 18.88 63.1zM20.14 61.16h16.02L35.48 48.8c-.19-.93-.53-1.76-1.02-2.47-.8-1.17-1.97-2.07-3.3-2.54-2.14-.75-4.58-1.61-5.91-2.08L20.14 61.16zM1.97 61.16h15.67l-5.04-19.49c-.93.33-2.67.95-5.98 2.11-1.35.47-2.49 1.35-3.31 2.54-.49.72-.83 1.55-1.01 2.46L1.97 61.16z"></path><path d="M18.91 44.06c-2.13 0-4.26-.98-6.32-2.95-.19-.18-.3-.43-.3-.7 0-.26.11-.52.3-.7.77-.75.98-1.82.65-3.28-.12-.52.21-1.04.73-1.16.52-.12 1.04.21 1.16.73.39 1.72.22 3.16-.53 4.31 2.91 2.43 5.69 2.43 8.62.02-.7-1.05-.89-2.46-.59-4.27.09-.53.59-.88 1.12-.8.53.09.89.59.8 1.12-.36 2.13.21 2.91.67 3.3.21.18.33.44.34.71.01.27-.1.54-.3.73C23.17 43.07 21.04 44.06 18.91 44.06zM8.57 56.13c-2.03 0-3.69-1.65-3.69-3.69s1.65-3.69 3.69-3.69c2.03 0 3.69 1.65 3.69 3.69S10.6 56.13 8.57 56.13zM8.57 50.7c-.96 0-1.75.78-1.75 1.75 0 .96.78 1.75 1.75 1.75.96 0 1.75-.78 1.75-1.75C10.32 51.48 9.53 50.7 8.57 50.7z"></path><g><path d="M7.27,51.04c-0.42,0-0.81-0.27-0.93-0.7c-1.34-4.6-1.75-13.99,6.32-16.66c0.51-0.17,1.06,0.11,1.22,0.62
					c0.17,0.51-0.11,1.06-0.62,1.22C4.96,38.27,8.06,49.33,8.2,49.8c0.15,0.51-0.15,1.05-0.66,1.2C7.45,51.02,7.36,51.04,7.27,51.04
					z"></path></g><g><path d="M30.45,50.52c-0.07,0-0.15-0.01-0.22-0.03c-0.52-0.12-0.85-0.64-0.72-1.17c1.08-4.6,0.81-8.23-0.8-10.78
					c-1.6-2.54-3.96-3.08-4.06-3.1c-0.52-0.11-0.86-0.63-0.74-1.15c0.11-0.52,0.62-0.85,1.14-0.75c0.13,0.03,3.22,0.7,5.28,3.92
					c1.92,3.01,2.28,7.15,1.08,12.3C31.29,50.21,30.89,50.52,30.45,50.52z"></path></g><g><path d="M31.34,56.04c-0.09,0-0.19-0.01-0.28-0.04c-0.51-0.15-0.81-0.69-0.65-1.21l0.72-2.42c0.24-0.82-0.22-1.69-1.05-1.93
					c-0.4-0.12-0.82-0.07-1.18,0.12c-0.37,0.2-0.63,0.53-0.75,0.92l-0.72,2.42c-0.15,0.51-0.69,0.8-1.21,0.65
					c-0.51-0.15-0.81-0.69-0.65-1.21l0.72-2.42c0.27-0.89,0.87-1.63,1.69-2.08c0.82-0.44,1.77-0.54,2.66-0.28
					c1.85,0.55,2.9,2.5,2.35,4.35l-0.72,2.42C32.15,55.77,31.76,56.04,31.34,56.04z"></path></g><g><path d="M18.89,21.81c-0.54,0-0.97-0.43-0.97-0.97v-3.7c0-0.54,0.43-0.97,0.97-0.97s0.97,0.43,0.97,0.97v3.7
				C19.86,21.37,19.42,21.81,18.89,21.81z"></path></g><g><path d="M20.74,19.96h-3.7c-0.54,0-0.97-0.43-0.97-0.97s0.43-0.97,0.97-0.97h3.7c0.54,0,0.97,0.43,0.97,0.97
				S21.27,19.96,20.74,19.96z"></path></g><g><path d="M47.49 16.27c-.54 0-.97-.43-.97-.97v-2.97c0-.54.43-.97.97-.97 1.22 0 2.22-.99 2.22-2.22 0-1.22-.99-2.22-2.22-2.22-1.03 0-1.92.7-2.16 1.7-.13.52-.65.84-1.17.72-.52-.12-.84-.65-.72-1.17.45-1.87 2.11-3.18 4.04-3.18 2.29 0 4.16 1.86 4.16 4.16 0 1.96-1.36 3.6-3.19 4.04v2.11C48.46 15.84 48.02 16.27 47.49 16.27zM47.48 19.62c-.54 0-.97-.43-.97-.97V17.9c0-.54.43-.97.97-.97.54 0 .97.43.97.97v.76C48.44 19.19 48.01 19.62 47.48 19.62z"></path></g></svg>