<svg xmlns="http://www.w3.org/2000/svg" width="24" height="24" fill="none" viewBox="0 0 24 24" id="emergency-call"><path fill="#EE4D4D" fill-rule="evenodd" d="M1.75 18.3478C1.75 20.7971 3.65279 22.7826 6 22.7826H10C10.4142 22.7826 10.75 22.4322 10.75 22V17C10.75 16.5678 10.4142 16.2174 10 16.2174H8C7.30964 16.2174 6.75 15.6334 6.75 14.913V9.08694C6.75 8.36657 7.30964 7.78259 8 7.78259H10C10.4142 7.78259 10.75 7.43221 10.75 6.99999V1.99999C10.75 1.56776 10.4142 1.21738 10 1.21738H6C3.65279 1.21738 1.75 3.20289 1.75 5.65216V18.3478Z" clip-rule="evenodd"></path><path fill="#ECEFF1" fill-rule="evenodd" d="M16.5 5.21738C13.3548 5.21738 10.75 7.77528 10.75 11C10.75 12.5049 11.3219 13.8714 12.25 14.8952V17.5C12.25 17.7764 12.3898 18.0324 12.6177 18.1733C12.8456 18.3142 13.1279 18.3192 13.3602 18.1864L15.8759 16.7489C16.0811 16.7712 16.2894 16.7826 16.5 16.7826C19.6452 16.7826 22.25 14.2247 22.25 11C22.25 7.77528 19.6452 5.21738 16.5 5.21738Z" clip-rule="evenodd"></path><path fill="#EE4D4D" fill-rule="evenodd" d="M17.25 8.49999C17.25 8.06776 16.9142 7.71738 16.5 7.71738C16.0858 7.71738 15.75 8.06776 15.75 8.49999V10.2174H14C13.5858 10.2174 13.25 10.5678 13.25 11C13.25 11.4322 13.5858 11.7826 14 11.7826H15.75V13.5C15.75 13.9322 16.0858 14.2826 16.5 14.2826C16.9142 14.2826 17.25 13.9322 17.25 13.5V11.7826H19C19.4142 11.7826 19.75 11.4322 19.75 11C19.75 10.5678 19.4142 10.2174 19 10.2174H17.25V8.49999Z" clip-rule="evenodd"></path><path fill="#CFD8DC" fill-rule="evenodd" d="M16.5 5.21738V16.7826C16.2894 16.7826 16.0811 16.7712 15.8759 16.7489L13.3602 18.1864C13.1279 18.3192 12.8456 18.3142 12.6177 18.1733C12.3898 18.0324 12.25 17.7764 12.25 17.5V14.8952C11.3219 13.8714 10.75 12.5049 10.75 11C10.75 7.77528 13.3548 5.21738 16.5 5.21738Z" clip-rule="evenodd"></path><path fill="#D64545" fill-rule="evenodd" d="M16.5 7.71738C16.0858 7.71738 15.75 8.06776 15.75 8.49999V10.2174H14C13.5858 10.2174 13.25 10.5678 13.25 11 13.25 11.4322 13.5858 11.7826 14 11.7826H15.75V13.5C15.75 13.9322 16.0858 14.2826 16.5 14.2826V7.71738zM6 22.7826C3.65279 22.7826 1.75 20.7971 1.75 18.3478V12H6.75V14.913C6.75 15.6334 7.30964 16.2174 8 16.2174H10C10.4142 16.2174 10.75 16.5678 10.75 17V22C10.75 22.4322 10.4142 22.7826 10 22.7826H6z" clip-rule="evenodd"></path></svg>