<svg xmlns="http://www.w3.org/2000/svg" width="32" height="32" viewBox="0 0 8.467 8.467" id="father-love"><g transform="translate(90.417 -227.806)"><path d="m -84.464097,229.0633 c -0.07467,-0.002 -0.136453,0.0576 -0.136426,0.13229 v 1.02423 c 9e-6,0.0731 0.05923,0.13228 0.132292,0.13229 0.111161,0 0.198437,0.0873 0.198437,0.19844 0,0.11116 -0.08728,0.19843 -0.198437,0.19843 -0.07306,1e-5 -0.132289,0.0592 -0.132292,0.1323 v 0.23047 c 1.6e-5,0.0351 0.01396,0.0687 0.03876,0.0935 0.167416,0.16746 0.399801,0.2713 0.654741,0.2713 0.262329,0 0.489246,-0.12945 0.645438,-0.31006 0.156192,-0.18061 0.248564,-0.41366 0.248564,-0.64802 0,-0.25356 -0.06699,-0.44662 -0.179834,-0.58705 -0.112842,-0.14042 -0.261645,-0.22429 -0.40876,-0.29352 -0.294232,-0.13846 -0.581847,-0.22543 -0.752926,-0.51056 -0.02322,-0.0386 -0.0645,-0.0628 -0.109554,-0.0641 z m 0.128158,0.48266 c 0.205268,0.17268 0.432505,0.24274 0.621667,0.33176 0.134004,0.0631 0.241516,0.12802 0.314709,0.21911 0.07319,0.0911 0.121957,0.21221 0.121957,0.42168 0,0.16251 -0.06941,0.34236 -0.184485,0.47542 -0.115072,0.13306 -0.268897,0.21807 -0.444934,0.21807 -0.168231,0 -0.312381,-0.075 -0.428914,-0.17776 v -0.0388 c 0.196129,-0.0569 0.330729,-0.24226 0.330729,-0.44493 0,-0.20268 -0.129035,-0.38556 -0.330729,-0.44184 z" color="#000" font-family="sans-serif" font-weight="400" overflow="visible" style="line-height:normal;font-variant-ligatures:normal;font-variant-position:normal;font-variant-caps:normal;font-variant-numeric:normal;font-variant-alternates:normal;font-feature-settings:normal;text-indent:0;text-align:start;text-decoration-line:none;text-decoration-style:solid;text-decoration-color:#000;text-transform:none;text-orientation:mixed;shape-padding:0;isolation:auto;mix-blend-mode:normal"></path><path style="line-height:normal;font-variant-ligatures:normal;font-variant-position:normal;font-variant-caps:normal;font-variant-numeric:normal;font-variant-alternates:normal;font-feature-settings:normal;text-indent:0;text-align:start;text-decoration-line:none;text-decoration-style:solid;text-decoration-color:#000;text-transform:none;text-orientation:mixed;shape-padding:0;isolation:auto;mix-blend-mode:normal" d="m -84.5362,229.47907 -0.648437,0.38867 -0.382813,0.12891 a 0.13230489,0.13230489 0 0 0 -0.07813,0.18359 l 0.09961,0.19726 -0.222656,0.33204 a 0.13230489,0.13230489 0 0 0 0,0.14648 l 0.242188,0.36328 v 0.49024 h 0.263671 v -0.5293 a 0.13230489,0.13230489 0 0 0 -0.02148,-0.0742 l -0.214843,-0.32227 0.214843,-0.32421 a 0.13230489,0.13230489 0 0 0 0.0078,-0.13282 l -0.0625,-0.12695 0.251954,-0.084 a 0.13230489,0.13230489 0 0 0 0.02539,-0.0137 l 0.662111,-0.39646 z" color="#000" font-family="sans-serif" font-weight="400" overflow="visible"></path><path style="line-height:normal;font-variant-ligatures:normal;font-variant-position:normal;font-variant-caps:normal;font-variant-numeric:normal;font-variant-alternates:normal;font-feature-settings:normal;text-indent:0;text-align:start;text-decoration-line:none;text-decoration-style:solid;text-decoration-color:#000;text-transform:none;text-orientation:mixed;shape-padding:0;isolation:auto;mix-blend-mode:normal" d="m -85.407293,231.57672 a 0.13230489,0.13230489 0 0 0 -0.04102,0.0117 l -1.455079,0.66211 a 0.13230489,0.13230489 0 0 0 -0.0625,0.1836 l 0.66211,1.1914 a 0.13230489,0.13230489 0 0 0 0.158203,0.0606 l 0.396484,-0.13086 a 0.13278948,0.13278948 0 1 0 -0.08398,-0.25195 l -0.292968,0.0976 -0.539063,-0.96875 1.298828,-0.58984 h 1.03125 v 1.82812 l -0.623047,1.74219 h -2.089843 l 0.585937,-1.40428 a 0.13230489,0.13230489 0 1 0 -0.244141,-0.10156 l -0.662109,1.58789 a 0.13230489,0.13230489 0 0 0 0.121094,0.1836 h 2.382812 a 0.13230489,0.13230489 0 0 0 0.123047,-0.0879 l 0.66211,-1.85156 a 0.13230489,0.13230489 0 0 0 0.0078,-0.0449 v -1.98437 a 0.13230489,0.13230489 0 0 0 -0.13281,-0.13284 h -1.189454 a 0.13230489,0.13230489 0 0 0 -0.01367,0 z" color="#000" font-family="sans-serif" font-weight="400" overflow="visible"></path><path style="line-height:normal;font-variant-ligatures:normal;font-variant-position:normal;font-variant-caps:normal;font-variant-numeric:normal;font-variant-alternates:normal;font-feature-settings:normal;text-indent:0;text-align:start;text-decoration-line:none;text-decoration-style:solid;text-decoration-color:#000;text-transform:none;text-orientation:mixed;shape-padding:0;isolation:auto;mix-blend-mode:normal" d="M-87.608465 229.81305c-.187109-.0339-.371583-.0283-.53711.0469-.165526.0751-.301435.219-.398437.42382a.13230489.13230489 0 0 0 .0019.11719l.341797.6543c-.368576.88656-.443822 1.55089-.5 2.0957a.13230489.13230489 0 0 0 .07813.13477c.833238.35982 1.496705.33766 2.3125.27539l-.02148-.26367c-.770536.0588-1.34984.0466-2.078125-.24219.05525-.54123.102081-1.12083.46875-1.96875a.13230489.13230489 0 0 0-.0039-.11328l-.322266-.61719c.06929-.12165.142025-.21376.230469-.25391.08086-.0367.188378-.0328.298828-.0234l.158203.70898c.06555.51153-.06055 1.02543-.193359 1.68945a.13230489.13230489 0 0 0 .128906.15821h.794922v-.26563h-.646478c.119443-.58203.245376-1.09481.177734-1.61914a.13230489.13230489 0 0 0-.002-.0117l-.183593-.82422a.13230489.13230489 0 0 0-.105469-.10156zM-86.319403 228.40094c-.363747 0-.662109.29836-.662109.66211 0 .36375.298362.66211.662109.66211.363747 0 .660156-.29836.660156-.66211 0-.36375-.296409-.66211-.660156-.66211zm0 .26563c.220756 0 .396485.17573.396485.39648 0 .22076-.175729.39649-.396485.39649-.220755 0-.398437-.17573-.398437-.39649 0-.22075.177682-.39648.398437-.39648z" color="#000" font-family="sans-serif" font-weight="400" overflow="visible"></path><path style="line-height:normal;font-variant-ligatures:normal;font-variant-position:normal;font-variant-caps:normal;font-variant-numeric:normal;font-variant-alternates:normal;font-feature-settings:normal;text-indent:0;text-align:start;text-decoration-line:none;text-decoration-style:solid;text-decoration-color:#000;text-transform:none;text-orientation:mixed;shape-padding:0;isolation:auto;mix-blend-mode:normal" d="M-87.247137 229.19586c-.699124 0-1.491214.28836-1.929688.86329-.151697.1989-.253752.50293-.107422.77343.140367.25945.438586.39603.726563.33203a.13230489.13230489 0 1 0-.05859-.25781c-.173726.0386-.348918-.0427-.433594-.19922-.07871-.1455-.02217-.34909.08398-.48828.368957-.48377 1.094956-.75976 1.71875-.75976a.13230489.13230489 0 1 0 .000001-.26368zM-86.752997 229.90485a.13230489.13230489 0 0 0-.08789.0469c-.102237.11776-.222275.22932-.353515.33008a.13230489.13230489 0 1 0 .162109.20899c.144852-.11122.276034-.23325.390625-.36524a.13230489.13230489 0 0 0-.111328-.2207zM-85.819403 228.79743a.13230489.13230489 0 0 0-.117187.13281c.000002.21762.178862.39844.396484.39844a.132815.132815 0 1 0 0-.26563c-.07463 0-.132811-.0582-.132812-.13281a.13230489.13230489 0 0 0-.146485-.13281z" color="#000" font-family="sans-serif" font-weight="400" overflow="visible"></path></g></svg>