<svg xmlns="http://www.w3.org/2000/svg" viewBox="0 0 32 32" id="health-insurance"><g><path fill="#9bc9ff" d="M27.49219,3.56445l-10.999-2.79a2.02683,2.02683,0,0,0-.98535-.001l-11.001,2.792A1.99934,1.99934,0,0,0,3,5.50391V14.207A15.0913,15.0913,0,0,0,8.87109,26.10938l5.91114,4.5332a2.002,2.002,0,0,0,2.43457.001l5.91211-4.53417A15.0913,15.0913,0,0,0,29,14.207V5.50391A2.00111,2.00111,0,0,0,27.49219,3.56445Z"></path><path fill="#fff" d="M23.81216,6.72276,16.40134,4.84335a1.65646,1.65646,0,0,0-.80082-.00093L8.18691,6.72369a1.62311,1.62311,0,0,0-1.22445,1.5747v5.86492a10.44317,10.44317,0,0,0,4.06448,8.23952l3.98551,3.05741a1.6284,1.6284,0,0,0,1.976-.00093l3.98458-3.05648v.00092a10.4463,10.4463,0,0,0,4.06448-8.24044V8.29839A1.62478,1.62478,0,0,0,23.81216,6.72276Z"></path><path fill="#9bc9ff" d="M16,19a1.42775,1.42775,0,0,1-1.42857-1.42857V10.42857a1.42857,1.42857,0,0,1,2.85714,0v7.14286A1.42775,1.42775,0,0,1,16,19Z"></path><path fill="#9bc9ff" d="M19.57143,15.42857H12.42857a1.42857,1.42857,0,0,1,0-2.85714h7.14286a1.42857,1.42857,0,0,1,0,2.85714Z"></path><path fill="#1e81ce" d="M16,31.05566a1.99585,1.99585,0,0,1-1.21777-.41308l-5.91114-4.5332A15.0913,15.0913,0,0,1,3,14.207V5.50391A1.99934,1.99934,0,0,1,4.50684,3.56543l11.001-2.792a2.02683,2.02683,0,0,1,.98535.001l10.999,2.79A2.00111,2.00111,0,0,1,29,5.50391V14.207a15.0913,15.0913,0,0,1-5.87109,11.90235h0L17.2168,30.64355A1.99613,1.99613,0,0,1,16,31.05566ZM16,2.71289,5,5.50391V14.207a13.07914,13.07914,0,0,0,5.08789,10.31445L16,29.05566l5.91211-4.53418A13.07914,13.07914,0,0,0,27,14.207V5.50391Zm6.52051,22.60254h0Z"></path><path fill="#1e81ce" d="M15.56836,26.18652a.99334.99334,0,0,1-.60742-.207L10.77246,22.7666A10.97755,10.97755,0,0,1,6.5,14.10547v-6.165A1.70615,1.70615,0,0,1,7.78711,6.28516l7.793-1.97754a1.7413,1.7413,0,0,1,.8418.001l7.79,1.97559A1.70791,1.70791,0,0,1,25.5,7.94043v6.165a10.98088,10.98088,0,0,1-4.27246,8.66211L19.6084,24.00879a.99948.99948,0,1,1-1.2168-1.58594l1.61914-1.24219A8.9721,8.9721,0,0,0,23.5,14.10547V8.167L16,6.26465,8.5,8.167v5.93848a8.96881,8.96881,0,0,0,3.48926,7.07422l4.18847,3.21386a.99992.99992,0,0,1-.60937,1.793Zm.35937-19.93945h0Zm.14649-.001h0Z"></path></g></svg>