<svg xmlns="http://www.w3.org/2000/svg" viewBox="0 0 512 512" id="health-insurance"><path d="M306.86035 399.85093c-4.53504 2.0342-6.56506 7.35585-4.53027 11.89062 2.03001 4.53624 7.35831 6.57174 11.8916 4.53516 4.54173-2.03247 6.56979-7.3566 4.5332-11.89648-2.03659-4.54036-7.35249-6.56211-11.89453-4.5293zM293.20507 415.83335c-2.0293-4.52734-7.36621-6.56055-11.89648-4.53125-4.52637 2.03125-6.55859 7.36621-4.53027 11.89062 2.02649 4.52838 7.34361 6.57529 11.89453 4.53418 4.52637-2.0293 6.56055-7.36328 4.5332-11.89062 0-.00098-.00098-.00195-.00098-.00293zM289 332.14292v-43h43c12.13086 0 22-9.86914 22-22v-22c0-12.13086-9.86914-22-22-22h-43v-43c0-12.13086-9.86914-22-22-22h-22c-12.13086 0-22 9.86914-22 22v43h-43c-12.13086 0-22 9.86914-22 22v22c0 12.13086 9.86914 22 22 22h43v43c0 12.13086 9.86914 22 22 22h22c12.13086 0 22-9.86914 22-22zm-16-51v51c0 3.30859-2.69141 6-6 6h-22c-3.30859 0-6-2.69141-6-6v-51c0-4.41797-3.58203-8-8-8h-51c-3.30859 0-6-2.69141-6-6v-22c0-3.30859 2.69141-6 6-6h51c4.41797 0 8-3.58203 8-8v-51c0-3.30859 2.69141-6 6-6h22c3.30859 0 6 2.69141 6 6v51c0 4.41797 3.58203 8 8 8h51c3.30859 0 6 2.69141 6 6v22c0 3.30859-2.69141 6-6 6h-51c-4.41797 0-8 3.58203-8 8z"></path><path d="M379.41015,47.13316c-97.03694-17.88622-123.63634-22.70782-246.82129,0-32.70215,6.02637-56.42285,34.54004-56.40039,67.79785l.124,169.54199c.00979,13.68457,1.9883,27.18164,5.88186,40.11328,10.89746,36.20215,47.87988,123.59082,155.66699,153.12012,11.85927,3.24772,24.40704,3.25064,36.28906-.00293,107.87793-29.55469,144.82715-117.04395,155.70605-153.28613,3.86035-12.85742,5.82129-26.25,5.83105-39.80566l.12402-169.67676c.02734-33.25879-23.69238-61.77344-56.40137-67.80176Zm40.27734,237.4668c-.00781,12.00098-1.74316,23.84961-5.15527,35.2168-10.11328,33.69043-44.44727,115.01367-144.6084,142.45508-9.07031,2.48242-18.78223,2.48145-27.83691,.00293-100.07617-27.41699-134.44238-108.64844-144.57227-142.30078-3.44336-11.43848-5.19434-23.38672-5.20217-35.5127l-.124-169.54102c-.0166-25.53418,18.19336-47.4248,43.30078-52.05273,121.78351-22.44948,146.2682-17.46511,241.02051,0,25.1123,4.62891,43.32324,26.52051,43.30176,52.05469l-.12402,169.67773Z"></path><path d="M371.77832,88.53843c-93.95648-17.31841-114.72942-21.53404-231.55664,0-12.7168,2.34375-21.94043,13.43066-21.93066,26.36133l.12402,169.54199c.00684,9.58203,1.38379,19.00488,4.09473,28.00781,27.4995,91.36117,110.03082,125.59082,133.49023,125.59082,4.41797,0,8-3.58203,8-8s-3.58203-8-8-8c-.94727,0-1.88965-.12598-2.79688-.375-79.78223-21.85742-107.26172-86.88379-115.37305-113.82715-2.26074-7.51074-3.40918-15.38574-3.41504-23.40723l-.12402-169.54297c-.00391-5.20703,3.70996-9.6709,8.83105-10.61523,116.00595-21.38266,134.75704-16.77325,225.75586,0,5.12109,.94434,8.83496,5.4082,8.83105,10.61523l-.12402,169.68164c-.00586,7.90723-1.1416,15.69238-3.37695,23.14062-5.37402,17.90234-19.00977,52.00488-49.95801,79.26465-3.31543,2.91992-3.63574,7.97559-.71484,11.29102,2.91992,3.31543,7.97559,3.63574,11.29102,.71484,33.93457-29.89062,48.84082-67.13184,54.70605-86.6709,2.68262-8.9375,4.0459-18.2666,4.05273-27.72852l.12402-169.68164c.00977-12.93066-9.21387-24.01758-21.93066-26.36133Z"></path></svg>