<svg xmlns="http://www.w3.org/2000/svg" viewBox="0 0 64 64" id="hospital-location"><polygon fill="#e6e6e6" points="3 41 26.2 41 37.8 41 61 41 61 55 41.647 55 35.867 55 3 55 3 41"></polygon><path fill="#009245" d="M39.124,11.945a14.122,14.122,0,0,1,1.581,1.09L42,14.206A13.949,13.949,0,0,1,46,24c0,7.732-14,24-14,24S18,31.732,18,24A14.009,14.009,0,0,1,37.244,11.015Z"></path><circle cx="32" cy="24" r="10" fill="#f2f2f2"></circle><path fill="#c1272d" d="M37.5,22h-3a.5.5,0,0,1-.5-.5v-3a.5.5,0,0,0-.5-.5h-3a.5.5,0,0,0-.5.5v3a.5.5,0,0,1-.5.5h-3a.5.5,0,0,0-.5.5v3a.5.5,0,0,0,.5.5h3a.5.5,0,0,1,.5.5v3a.5.5,0,0,0,.5.5h3a.5.5,0,0,0,.5-.5v-3a.5.5,0,0,1,.5-.5h3a.5.5,0,0,0,.5-.5v-3A.5.5,0,0,0,37.5,22Z"></path><rect width="5" height="2" x="3" y="47" fill="#f7931e"></rect><rect width="6" height="2" x="12" y="47" fill="#f7931e"></rect><rect width="6" height="2" x="22" y="47" fill="#f7931e"></rect><rect width="6" height="2" x="36" y="47" fill="#f7931e"></rect><rect width="6" height="2" x="46" y="47" fill="#f7931e"></rect><rect width="5" height="2" x="56" y="47" fill="#f7931e"></rect><path fill="#ccc" d="M51.5,21h9a.5.5,0,0,1,.5.5V41a0,0,0,0,1,0,0H51a0,0,0,0,1,0,0V21.5A.5.5,0,0,1,51.5,21Z"></path><rect width="2" height="2" x="53" y="24" fill="#69d4f9"></rect><rect width="2" height="2" x="57" y="24" fill="#69d4f9"></rect><rect width="2" height="2" x="53" y="28" fill="#69d4f9"></rect><rect width="2" height="2" x="57" y="28" fill="#69d4f9"></rect><rect width="2" height="2" x="53" y="32" fill="#69d4f9"></rect><rect width="2" height="2" x="57" y="32" fill="#69d4f9"></rect><rect width="2" height="2" x="53" y="36" fill="#69d4f9"></rect><rect width="2" height="2" x="57" y="36" fill="#69d4f9"></rect><path fill="#ccc" d="M3.5,29h11a.5.5,0,0,1,.5.5V41a0,0,0,0,1,0,0H3a0,0,0,0,1,0,0V29.5A.5.5,0,0,1,3.5,29Z"></path><rect width="2" height="2" x="5" y="32" fill="#69d4f9"></rect><rect width="2" height="2" x="8" y="32" fill="#69d4f9"></rect><rect width="2" height="2" x="8" y="36" fill="#69d4f9"></rect><rect width="2" height="2" x="11" y="32" fill="#69d4f9"></rect><rect width="2" height="2" x="11" y="36" fill="#69d4f9"></rect><rect width="2" height="2" x="5" y="36" fill="#69d4f9"></rect></svg>