<svg xmlns="http://www.w3.org/2000/svg" width="48" height="48" enable-background="new 0 0 48 48" viewBox="0 0 48 48" id="hospital"><path d="M30,14H18c-0.553,0-1-0.447-1-1V1c0-0.553,0.447-1,1-1h12c0.553,0,1,0.447,1,1v12C31,13.553,30.553,14,30,14z M19,12h10V2
		H19V12z"></path><path d="M24,10c-0.553,0-1-0.447-1-1V5c0-0.553,0.447-1,1-1s1,0.447,1,1v4C25,9.553,24.553,10,24,10z"></path><path d="M26,8h-4c-0.553,0-1-0.447-1-1s0.447-1,1-1h4c0.553,0,1,0.447,1,1S26.553,8,26,8z"></path><path d="M37,44H11c-0.553,0-1-0.447-1-1V7c0-0.553,0.447-1,1-1h7c0.553,0,1,0.447,1,1v5h10V7c0-0.553,0.447-1,1-1h7
		c0.553,0,1,0.447,1,1v36C38,43.553,37.553,44,37,44z M12,42h24V8h-5v5c0,0.553-0.447,1-1,1H18c-0.553,0-1-0.447-1-1V8h-5V42z"></path><path d="M47,48H1c-0.553,0-1-0.447-1-1v-4c0-0.553,0.447-1,1-1h46c0.553,0,1,0.447,1,1v4C48,47.553,47.553,48,47,48z M2,46h44v-2H2
		V46z"></path><path d="M31,44H17c-0.553,0-1-0.447-1-1V28c0-0.553,0.447-1,1-1h14c0.553,0,1,0.447,1,1v15C32,43.553,31.553,44,31,44z M18,42h12
		V29H18V42z"></path><path d="M24 43c-.553 0-1-.447-1-1V27.999c0-.553.447-1 1-1s1 .447 1 1V42C25 42.553 24.553 43 24 43zM11 44H3c-.553 0-1-.447-1-1V13c0-.553.447-1 1-1h8c.553 0 1 .447 1 1v30C12 43.553 11.553 44 11 44zM4 42h6V14H4V42zM45 44h-8c-.553 0-1-.447-1-1V13c0-.553.447-1 1-1h8c.553 0 1 .447 1 1v30C46 43.553 45.553 44 45 44zM38 42h6V14h-6V42z"></path></svg>