<svg xmlns="http://www.w3.org/2000/svg" width="48" height="48" viewBox="0 0 12.7 12.7" id="hospital"><path style="line-height:normal;font-variant-ligatures:normal;font-variant-position:normal;font-variant-caps:normal;font-variant-numeric:normal;font-variant-alternates:normal;font-feature-settings:normal;text-indent:0;text-align:start;text-decoration-line:none;text-decoration-style:solid;text-decoration-color:#000;text-transform:none;text-orientation:mixed;white-space:normal;shape-padding:0;isolation:auto;mix-blend-mode:normal;solid-color:#000;solid-opacity:1" d="M 2.3808594,0.79296875 C 2.2346887,0.79348576 2.1166257,0.9124233 2.1171875,1.0585938 v 1.8515624 c -5.617e-4,0.1461705 0.1175013,0.265108 0.2636719,0.265625 H 6.0859375 C 6.2321081,3.1752642 6.3501711,3.0563267 6.3496094,2.9101562 V 1.0585938 C 6.3501712,0.9124233 6.2321082,0.79348576 6.0859375,0.79296875 Z M 2.6464844,1.3222656 H 5.8203125 V 2.6464844 H 2.6464844 Z" color="#000" enable-background="accumulate" font-family="sans-serif" font-weight="400" overflow="visible"></path><path style="line-height:normal;font-variant-ligatures:normal;font-variant-position:normal;font-variant-caps:normal;font-variant-numeric:normal;font-variant-alternates:normal;font-feature-settings:normal;text-indent:0;text-align:start;text-decoration-line:none;text-decoration-style:solid;text-decoration-color:#000;text-transform:none;text-orientation:mixed;white-space:normal;shape-padding:0;isolation:auto;mix-blend-mode:normal;solid-color:#000;solid-opacity:1" d="m 2.6464844,2.9101562 v 1.3434667 c 0,0 -0.4272588,0.055368 -0.78125,0.2385646 C 1.3428183,4.7625472 0.79296875,5.2916667 0.79296875,6.3496094 v 5.2929686 c 5.1697e-4,0.146171 0.11945452,0.264234 0.26562505,0.263672 h 6.3496093 c 0.1461705,5.62e-4 0.265108,-0.117501 0.265625,-0.263672 V 6.3496094 c 0,0 0.0033,-0.5187943 -0.2597656,-1.0449219 C 7.1796878,4.8359381 6.7062798,4.3289027 5.8203125,4.2443602 V 2.9101562 H 5.2910156 v 1.5878907 c 5.17e-4,0.1461706 0.1194545,0.2642336 0.265625,0.2636719 0.7933594,0 1.1828555,0.3813359 1.3828125,0.78125 0.199957,0.399914 0.2050781,0.8066406 0.2050781,0.8066406 V 11.376953 H 1.3222656 V 6.3496094 c 0,-0.7933594 0.381336,-1.1828555 0.78125,-1.3828125 0.399914,-0.199957 0.8066407,-0.2050781 0.8066406,-0.2050781 0.1461705,5.617e-4 0.265108,-0.1175013 0.265625,-0.2636719 V 2.9101562 Z" color="#000" enable-background="accumulate" font-family="sans-serif" font-weight="400" overflow="visible"></path><path style="line-height:normal;font-variant-ligatures:normal;font-variant-position:normal;font-variant-caps:normal;font-variant-numeric:normal;font-variant-alternates:normal;font-feature-settings:normal;text-indent:0;text-align:start;text-decoration-line:none;text-decoration-style:solid;text-decoration-color:#000;text-transform:none;text-orientation:mixed;white-space:normal;shape-padding:0;isolation:auto;mix-blend-mode:normal;solid-color:#000;solid-opacity:1" d="M2.3554688 6.0859375C2.2200562 6.099478 2.1169945 6.2135217 2.1171875 6.3496094v3.7050786c.000515.145408.1182639.263157.2636719.263671h3.7050781c.145408-.000514.2631569-.118263.2636719-.263671V6.3496094C6.3490949 6.2042011 6.2313458 6.086452 6.0859375 6.0859375H2.3808594c-.00846-.0004063-.016932-.0004063-.025391 0zM2.6464844 6.6152344H5.8203125V9.7890625H2.6464844zM10.246094 3.4355469C10.038842 3.3664631 9.7103895 3.3911736 9.4609375 3.640625 9.2114861 3.8900766 9.1867757 4.2185299 9.2558594 4.4257812 9.3249431 4.6330326 9.4609375 4.7617187 9.4609375 4.7617188l1.1230465 1.1230468c0 0 .128686.1359944.335938.2050782.207251.069084.535705.044374.785156-.2050782C11.954529 5.6353141 11.97924 5.3068607 11.910156 5.0996094 11.841073 4.892358 11.705078 4.7617188 11.705078 4.7617188L10.583984 3.640625c0 0-.130639-.1359943-.33789-.2050781zM10.078125 3.9375c.07338.02446.130859.076172.130859.076172l1.123047 1.1230469c0 0 .05171.057478.07617.1308593.02446.073382.04855.1194149-.07617.2441407-.124725.1247256-.170759.1006324-.24414.076172-.07338-.024461-.13086-.076172-.13086-.076172L9.8359375 4.3886719c0 0-.053665-.057478-.078125-.1308594C9.733352 4.1844308 9.7112119 4.1383976 9.8359375 4.0136719 9.9606638 3.8889459 10.004743 3.9130395 10.078125 3.9375z" color="#000" enable-background="accumulate" font-family="sans-serif" font-weight="400" overflow="visible"></path><path style="line-height:normal;font-variant-ligatures:normal;font-variant-position:normal;font-variant-caps:normal;font-variant-numeric:normal;font-variant-alternates:normal;font-feature-settings:normal;text-indent:0;text-align:start;text-decoration-line:none;text-decoration-style:solid;text-decoration-color:#000;text-transform:none;text-orientation:mixed;white-space:normal;shape-padding:0;isolation:auto;mix-blend-mode:normal;solid-color:#000;solid-opacity:1" d="M10.769531 4.2011719l-.748047.7480469.375.375.748047-.7480469zM10.583984 9.2597656c-.7274925 0-1.3242184.5967259-1.3242184 1.3242184 4e-7.727493.5967261 1.322266 1.3242184 1.322266.727493 0 1.322266-.594773 1.322266-1.322266 0-.7274928-.594772-1.3242187-1.322266-1.3242184zm0 .5292969c.441511-2e-7.792969.3534115.792969.7949215 0 .44151-.351459.792969-.792969.792969-.441509 0-.7949213-.351459-.7949215-.792969 0-.44151.3534115-.7949215.7949215-.7949215z" color="#000" enable-background="accumulate" font-family="sans-serif" font-weight="400" overflow="visible"></path><path style="line-height:normal;font-variant-ligatures:normal;font-variant-position:normal;font-variant-caps:normal;font-variant-numeric:normal;font-variant-alternates:normal;font-feature-settings:normal;text-indent:0;text-align:start;text-decoration-line:none;text-decoration-style:solid;text-decoration-color:#000;text-transform:none;text-orientation:mixed;white-space:normal;shape-padding:0;isolation:auto;mix-blend-mode:normal;solid-color:#000;solid-opacity:1" d="M11.189453 9.6015625l-1.5878905 1.5878905.375.375 1.5878905-1.5878905zM10.130859 6.6914062l-1.5859371 1.5878907.3730469.375 1.5878902-1.5878907z" color="#000" enable-background="accumulate" font-family="sans-serif" font-weight="400" overflow="visible"></path><path style="line-height:normal;font-variant-ligatures:normal;font-variant-position:normal;font-variant-caps:normal;font-variant-numeric:normal;font-variant-alternates:normal;font-feature-settings:normal;text-indent:0;text-align:start;text-decoration-line:none;text-decoration-style:solid;text-decoration-color:#000;text-transform:none;text-orientation:mixed;white-space:normal;shape-padding:0;isolation:auto;mix-blend-mode:normal;solid-color:#000;solid-opacity:1" d="M9.5253906 6.3496094c-.7274929 0-1.3242187.5967258-1.3242187 1.3242187-1e-7.727493.5967258 1.3222657 1.3242187 1.3222657.7274934-1e-7 1.3222654-.5947728 1.3222654-1.3222657 0-.7274928-.594773-1.3242187-1.3222654-1.3242187zm0 .5292968c.44151 1e-7.7929684.3534119.7929684.7949219 0 .44151-.3514584.7929687-.7929684.7929688-.44151 0-.7949219-.3514587-.7949218-.7929688 0-.44151.3534118-.7949219.7949218-.7949219zM4.2265625 6.8789062c-.048658.00147-.095966.016342-.1367187.042969 0 0-.9156708.5605726-.9140626 1.5449219.0009501.5808441.475273 1.0585937 1.0566407 1.0585937.5813677 0 1.0595444-.4767055 1.0585937-1.0585937C5.2894035 7.483389 4.3769531 6.921875 4.3769531 6.921875 4.332298 6.892725 4.2798772 6.8777477 4.2265625 6.8789062zm.00677.6007081C4.3629305 7.5861008 4.7617188 7.9715769 4.7617188 8.4667969 4.7622005 8.7616594 4.5278062 8.9960938 4.2324219 8.9960938 3.9370376 8.9960938 3.7055621 8.7627036 3.7050781 8.4667969 3.704318 8.0015698 4.0394072 7.6468161 4.2333333 7.4796143z" color="#000" enable-background="accumulate" font-family="sans-serif" font-weight="400" overflow="visible"></path></svg>