<svg xmlns="http://www.w3.org/2000/svg" viewBox="0 0 40 42" id="hourglass"><path d="M29,0a11,11,0,0,0-8.48,4H1A1,1,0,0,0,1,6H3v5a10.92,10.92,0,0,0,3.22,7.78A11.15,11.15,0,0,0,10,21.25v3.5A11,11,0,0,0,3,35v5H1a1,1,0,0,0,0,2H27a1,1,0,0,0,0-2H25V35a11,11,0,0,0-7-10.25v-3.5A11.28,11.28,0,0,0,21.5,19,11,11,0,1,0,29,0ZM5,40V35a8.82,8.82,0,0,1,.23-2H7.1a1,1,0,0,1,.74.33,3,3,0,0,0,2.12.88h0a3,3,0,0,0,2.12-.87l1.22-1.23a1,1,0,0,1,1.4,0l1.19,1.19a3,3,0,0,0,4.22,0,1,1,0,0,1,.7-.29h2A9.33,9.33,0,0,1,23,35v5ZM16.7,19.59a1,1,0,0,0-.7.95v4.92a1,1,0,0,0,.7.95A9,9,0,0,1,22.07,31H20.81a3,3,0,0,0-2.11.88,1,1,0,0,1-1.4,0L16.11,30.7a3,3,0,0,0-4.22,0l-1.23,1.22a1,1,0,0,1-.7.29h0a1,1,0,0,1-.74-.33A3,3,0,0,0,7.1,31H5.94a9,9,0,0,1,5.36-4.59,1,1,0,0,0,.7-.95V20.54a1,1,0,0,0-.7-.95,9.05,9.05,0,0,1-3.66-2.23A8.94,8.94,0,0,1,5,11V6H19.21a10.93,10.93,0,0,0,.95,11.52A9.06,9.06,0,0,1,16.7,19.59Zm13.3.35V19a1,1,0,0,0-2,0v.94A9,9,0,0,1,20.06,12H21a1,1,0,0,0,0-2h-.94A9,9,0,0,1,28,2.06V3a1,1,0,0,0,2,0V2.06A9,9,0,0,1,37.94,10H37a1,1,0,0,0,0,2h.94A9,9,0,0,1,30,19.94Zm1.71-7.65a1,1,0,0,1,0,1.42,1,1,0,0,1-1.42,0l-2-2A1,1,0,0,1,28,11V7a1,1,0,0,1,2,0v3.59Z"></path></svg>