<svg xmlns="http://www.w3.org/2000/svg" viewBox="0 0 128 128" id="insurance"><g><path d="M106 18.7v49.65a53.76 53.76 0 0 1-29.94 48.35l-12.21 6.11-12.21-6.11a53.77 53.77 0 0 1-29.88-48.35V18.7l42.09-8.42Zm-4 49.65V22l-38.1-7.62L25.76 22v46.35a49.77 49.77 0 0 0 27.67 44.77l10.42 5.21 10.42-5.21A49.78 49.78 0 0 0 102 68.35Z"></path><path fill="#52c5ca" d="M102 22v46.35a49.78 49.78 0 0 1-27.68 44.77l-10.42 5.21-10.42-5.21a49.77 49.77 0 0 1-27.72-44.77V22l38.09-7.62ZM83.89 69.46v-14a3 3 0 0 0-3-3h-7v-7a3 3 0 0 0-3-3h-14a3 3 0 0 0-3 3v7h-7a3 3 0 0 0-3 3v14a3 3 0 0 0 3 3h7v7a3 3 0 0 0 3 3h14a3 3 0 0 0 3-3v-7h7a3 3 0 0 0 3-3Z"></path><path d="M83.89 55.42v14a3 3 0 0 1-3 3h-7v7a3 3 0 0 1-3 3h-14a3 3 0 0 1-3-3v-7h-7a3 3 0 0 1-3-3v-14a3 3 0 0 1 3-3h7v-7a3 3 0 0 1 3-3h14a3 3 0 0 1 3 3v7h7a3 3 0 0 1 3 3Zm-4 13v-12h-10v-10h-12v10h-10v12h10v10h12v-10Z"></path><path fill="#7e9eff" d="M79.89 56.42v12.04H69.87v10.02H57.83V68.46H47.81V56.42h10.02V46.4h12.04v10.02h10.02z"></path></g></svg>