<svg xmlns="http://www.w3.org/2000/svg" enable-background="new 206 -206 512 512" viewBox="206 -206 512 512" id="knife-and-scissor"><path d="M604.3 113.9c-16.7-16.6-43.6-16.6-60.3 0-6.9 6.9-11.2 15.9-12.3 25.5l-72.3-72.3C431.6 39.2 393.5 24 354.1 24.9c1.1-6.6 2.7-13.1 4.8-19.4 1-2.9.2-6-1.9-8.2l-76.8-76.8c-3.1-3.1-8.2-3.1-11.3 0s-3.1 8.2 0 11.3l0 0 73.4 73.4c-2 6.9-3.5 13.9-4.5 21-7.1 1-14.1 2.5-21 4.5l-73.4-73.4c-3.1-3.1-8.2-3.1-11.3 0-3.1 3.1-3.1 8.2 0 11.3l76.8 76.8c2.1 2.1 5.3 2.9 8.2 1.9 6.3-2.1 12.8-3.7 19.4-4.8-1 39.4 14.3 77.4 42.1 105.3l72.3 72.3c-23.4 2.6-40.3 23.7-37.7 47.1 1.1 9.6 5.4 18.6 12.3 25.5l0 0c16.7 16.7 43.7 16.7 60.4 0 14.5-14.5 16.6-37.2 5.1-54.2l10.8-10.8c3.1-3.1 3.1-8.2 0-11.3s-8.2-3.1-11.3 0l0 0-10.3 10.2-90.2-90.2C364.6 111.4 351 76.7 352.5 41c35.7-1.4 70.4 12.1 95.6 37.4l90.2 90.2L528 178.9c-3.1 3.2-3 8.2.2 11.3 3.1 3 8 3 11.1 0l10.8-10.8c19.5 13.2 46 8.2 59.3-11.3C620.9 151.1 618.8 128.4 604.3 113.9L604.3 113.9zM455.6 236c14.7 0 26.6 11.9 26.6 26.6 0 14.7-11.9 26.6-26.6 26.6-14.7 0-26.6-11.9-26.6-26.6C428.9 247.9 440.8 236 455.6 236L455.6 236zM593 163c-10.4 10.4-27.3 10.4-37.7 0l0 0 0 0c-10.4-10.4-10.4-27.3 0-37.7s27.3-10.4 37.7 0C603.4 135.7 603.4 152.6 593 163zM524.2-84.5c-3.1-3.1-8.2-3.1-11.3 0l-2.4 2.4L389.7-202.9c-1.5-1.5-3.5-2.3-5.7-2.3l0 0c-2.1 0-4.2.8-5.7 2.3-24.2 24.2-24.3 63.5 0 87.8 0 0 0 0 0 0l47.1 47.1c2.5 2.5 6.4 3.1 9.6 1.3 13.1-7.3 29.4-5.8 41 3.8l8.3 6.9-.9.9c-3.1 3.1-3.2 8.2 0 11.3 0 0 0 0 0 0l161.7 161.7c11.2 11.2 29.4 11.3 40.6.1 0 0 .1-.1.1-.1 11.2-11.3 11.2-29.5 0-40.7L524.2-84.5zM495.8-67.4l-9.5-7.9c-15-12.3-35.5-15.4-53.5-8.1l-43.1-43.1c-15.8-15.8-18-40.7-5.2-59L499.2-70.8 495.8-67.4zM674.5 106.6c-5 5-13 5-18 0 0 0 0 0-.1-.1l-156-156 1.3-1.3c.1-.1.2-.2.2-.2l14.1-14.2 2.4-2.4 156 156C679.5 93.4 679.5 101.6 674.5 106.6L674.5 106.6z"></path></svg>