<svg xmlns="http://www.w3.org/2000/svg" enable-background="new 0 0 1024 1024" viewBox="0 0 1024 1024" id="maternity"><g><path d="M513.99,587.71l-9.99,9.82l-9.99-9.82c-22.61-22.23-59.38-22.23-81.99,0C401.04,598.5,395,612.86,395,628.14
		c0,15.28,6.05,29.64,17.02,40.43l88.47,87c0.97,0.96,2.24,1.44,3.51,1.44s2.53-0.48,3.51-1.44l88.47-87
		c10.98-10.79,17.02-25.15,17.02-40.43c0-15.28-6.05-29.64-17.02-40.43C573.37,565.48,536.59,565.48,513.99,587.71z"></path><rect width="32" height="30" x="272" y="225"></rect><rect width="64" height="30" x="128" y="657"></rect><rect width="30" height="67.88" x="185" y="534.06" transform="rotate(-45.001 199.994 568.005)"></rect><rect width="67.88" height="30" x="166.06" y="761" transform="rotate(-45.001 199.992 776.006)"></rect><path d="M496.66 843.22c-59.39 0-118.2-26.05-154.26-68.53-36.36-42.84-48.7-101.61-32.21-153.38 18.08-56.79 65.83-104.45 112.01-150.54 35.64-35.57 72.35-72.23 95.63-113.42 13.82 6.28 29.32 9.68 45.18 9.68 11.18 0 22.53-1.69 33.58-5.23l-9.16-28.57c-33.98 10.9-72.91-2.72-86.78-30.34-21.08-41.97 16.33-102.79 100.09-162.68l-17.45-24.4C443.7 215.6 460.24 289.3 473.83 316.35c4.69 9.34 11.13 17.58 18.83 24.56-20.96 38.04-55.39 72.41-91.65 108.62-48.72 48.63-99.1 98.92-119.4 162.67-19.6 61.54-5.06 131.24 37.93 181.9 31.09 36.63 76.65 62.68 126.05 73.51 5.41 14.98 9.05 20.06 19.31 33.35.99 1.29 2.06 2.67 3.21 4.17l23.8-18.27c-1.17-1.52-2.25-2.93-3.27-4.24-3.27-4.23-5.6-7.26-7.45-9.95 5.17.34 10.34.54 15.52.54 1.45 0 2.91-.01 4.37-.04l-.57-29.99C499.22 843.21 497.94 843.22 496.66 843.22zM799.96 591c-6.59-75.19 21.04-147.01 55.07-226.37 33.17-77.36 62.42-153.75 56.1-237.75l-29.92 2.25c5.81 77.23-22.11 149.87-53.75 223.68-16.39 38.23-32.03 75.82-43.21 115.38-12.92 45.72-17.56 86.75-14.17 125.43 4.61 52.58 24.26 100.02 43.26 145.9 21.57 52.08 41.95 101.28 41.15 156.26l30 .43c.89-61.18-21.64-115.57-43.43-168.18C822.92 684.26 804.17 638.98 799.96 591z"></path></g></svg>