<svg xmlns="http://www.w3.org/2000/svg" enable-background="new 0 0 512 512" viewBox="0 0 512 512" id="microscope"><g display="none"><rect width="67.9" height="33.9" x="362.1" y="43" fill="#D6D6D6" stroke="#000" stroke-linecap="round" stroke-linejoin="round" stroke-miterlimit="10" stroke-width="16" transform="rotate(-45.001 396.001 60.005)"></rect><rect width="181" height="67.9" x="189.5" y="142.1" fill="#D6D6D6" stroke="#000" stroke-linecap="round" stroke-linejoin="round" stroke-miterlimit="10" stroke-width="16" transform="rotate(-45.001 280 176.004)"></rect><path fill="#D6D6D6" stroke="#000" stroke-linecap="round" stroke-linejoin="round" stroke-miterlimit="10" stroke-width="16" d="
		M400,175.7L400,175.7h-56v32h50.9c2.8,0,5.1,2.3,5.1,5.1V328H111.8c-8.7,0-15.8,7.1-15.8,15.8V360h304h32v-32V207.7
		C432,190,417.7,175.7,400,175.7z"></path><rect width="464" height="48" x="24" y="440" fill="#D6D6D6" stroke="#000" stroke-linecap="round" stroke-linejoin="round" stroke-miterlimit="10" stroke-width="16"></rect><path fill="#D6D6D6" stroke="#000" stroke-linecap="round" stroke-linejoin="round" stroke-miterlimit="10" stroke-width="16" d="
		M440,440H72v-12c0-11,9-20,20-20h328c11,0,20,9,20,20V440z"></path><polygon fill="#D6D6D6" stroke="#000" stroke-linecap="round" stroke-linejoin="round" stroke-miterlimit="10" stroke-width="16" points="416 408 288 408 304 312 400 312"></polygon><circle cx="320" cy="191.7" r="48" fill="#D6D6D6" stroke="#000" stroke-linecap="round" stroke-linejoin="round" stroke-miterlimit="10" stroke-width="16"></circle><circle cx="320" cy="191.7" r="16" fill="#D6D6D6" stroke="#000" stroke-linecap="round" stroke-linejoin="round" stroke-miterlimit="10" stroke-width="16"></circle><polygon fill="#D6D6D6" stroke="#000" stroke-linecap="round" stroke-linejoin="round" stroke-miterlimit="10" stroke-width="16" points="184 248 208 232 224 248 208 272"></polygon><rect width="45.3" height="45.3" x="337.4" y="73.4" fill="#D6D6D6" stroke="#000" stroke-linecap="round" stroke-linejoin="round" stroke-miterlimit="10" stroke-width="16" transform="rotate(-45.001 360.005 96.004)"></rect></g><path d="M488,432h-40v-4c0-14.5-11.1-26.4-25.2-27.9l-5.4-32.1H432c4.4,0,8-3.6,8-8V207.7c0-22.1-17.9-40-40-40h-29.4
			c-2.4-5-5.5-9.6-9.2-13.7l12.3-12.3c1.5-1.5,2.3-3.5,2.3-5.7s-0.8-4.2-2.3-5.7l-2.3-2.3l26.3-26.3c1.5-1.5,2.3-3.5,2.3-5.7
			c0-1.3-0.3-2.6-0.9-3.8l38.6-38.6c3.1-3.1,3.1-8.2,0-11.3l-24-24c-3.1-3.1-8.2-3.1-11.3,0l-38.6,38.6c-1.1-0.6-2.4-0.9-3.8-0.9
			c-2.1,0-4.2,0.8-5.7,2.3L328,84.7l-2.3-2.3c-3.1-3.1-8.2-3.1-11.3,0l-128,128c-3.1,3.1-3.1,8.2,0,11.3l9.1,9.1l-15.9,10.6
			c-2,1.3-3.3,3.5-3.5,5.9c-0.2,2.4,0.6,4.8,2.3,6.4l24,24c1.5,1.5,3.5,2.3,5.7,2.3c0.3,0,0.5,0,0.8,0c2.4-0.2,4.5-1.5,5.9-3.5
			l10.6-15.9l9.1,9.1c1.6,1.6,3.6,2.3,5.7,2.3s4.1-0.8,5.7-2.3l36.6-36.6c10,9.1,23.2,14.6,37.7,14.6c22.3,0,41.6-13.1,50.6-32H392
			V304h-88c-3.9,0-7.2,2.8-7.9,6.7l-1.6,9.3H111.8C98.7,320,88,330.7,88,343.8V360c0,4.4,3.6,8,8,8h190.6l-5.3,32H92
			c-15.4,0-28,12.6-28,28v4H24c-4.4,0-8,3.6-8,8v48c0,4.4,3.6,8,8,8h464c4.4,0,8-3.6,8-8v-48C496,435.6,492.4,432,488,432z
			 M408,35.3L420.7,48L388,80.7L375.3,68L408,35.3z M360,75.3L380.7,96L360,116.7L339.3,96L360,75.3z M206.8,259.4l-10.2-10.2
			l10.4-6.9l6.7,6.7L206.8,259.4z M240,252.7l-10.3-10.3c0,0,0,0,0,0l-16-16c0,0,0,0,0,0L203.3,216L320,99.3l2.3,2.3c0,0,0,0,0,0
			l32,32c0,0,0,0,0,0l2.3,2.3l-7.7,7.7c-8.5-5.1-18.4-8.1-28.9-8.1c-30.9,0-56,25.1-56,56c0,10.6,3,20.5,8.1,28.9L240,252.7z
			 M320,231.7c-22.1,0-40-17.9-40-40s17.9-40,40-40s40,17.9,40,40S342.1,231.7,320,231.7z M375.4,199.7c0.4-2.6,0.6-5.3,0.6-8
			c0-2.7-0.2-5.4-0.6-8H400c13.2,0,24,10.8,24,24V352h-9.2l-6.8-40.7v-98.6c0-7.2-5.9-13.1-13.1-13.1H375.4z M104,352v-8.2
			c0-4.3,3.5-7.8,7.8-7.8h180.1l-2.7,16H104z M310.8,320h82.4l13.3,80H297.4L310.8,320z M80,428c0-6.6,5.4-12,12-12h196h128h4
			c6.6,0,12,5.4,12,12v4H80V428z M480,480H32v-32h40h368h40V480z"></path><path d="M320,167.7c-13.2,0-24,10.8-24,24s10.8,24,24,24s24-10.8,24-24S333.2,167.7,320,167.7z M320,199.7c-4.4,0-8-3.6-8-8
			s3.6-8,8-8s8,3.6,8,8S324.4,199.7,320,199.7z"></path><g display="none"><path d="M360,191.7c0-22.1-17.9-40-40-40s-40,17.9-40,40s17.9,40,40,40S360,213.7,360,191.7z M296,191.7c0-13.2,10.8-24,24-24
			s24,10.8,24,24s-10.8,24-24,24S296,204.9,296,191.7z"></path><rect width="53" height="20.6" x="371.5" y="47.7" transform="rotate(-45.001 398.001 58.005)"></rect><circle cx="320" cy="191.7" r="8"></circle><path d="M414.8,352h9.2V207.7c0-13.2-10.8-24-24-24h-24.6c0.4,2.6,0.6,5.3,0.6,8c0,2.7-0.2,5.4-0.6,8h19.5
			c7.2,0,13.1,5.9,13.1,13.1v98.6L414.8,352z"></path><polygon points="393.2 320 310.8 320 297.4 400 406.6 400"></polygon><rect width="33.9" height="33.9" x="343" y="79" transform="rotate(-45.001 360.012 96.003)"></rect><path d="M203.9 233.8l18.4 18.4c0 0 0 0 0 0l11.9 11.9 36.8-36.8c-5.9-9.7-9.3-21.1-9.3-33.2 0-35.4 28.8-64.3 64.3-64.3 12.1 0 23.5 3.4 33.2 9.3l8.9-8.9-2.7-2.7c0 0 0 0 0 0l-36.7-36.7c0 0 0 0 0 0l-2.7-2.7L192 221.9 203.9 233.8C203.9 233.8 203.9 233.8 203.9 233.8zM432 434c0-9.9-5.4-18-12-18h-4H288 92c-6.6 0-12 8.1-12 18v6h352V434z"></path><polygon points="440 448 72 448 32 448 32 480 480 480 480 448"></polygon><path d="M291.9,336H111.8c-4.3,0-7.8,3.5-7.8,7.8v8.2h185.2L291.9,336z"></path><polygon points="216 254.8 201.2 240 178.3 255.3 200.7 277.7"></polygon></g><g display="none"><rect width="67.9" height="33.9" x="362.1" y="43" fill="#156887" transform="rotate(-45.001 396.001 60.005)"></rect><rect width="181" height="67.9" x="189.5" y="142.1" fill="#156887" transform="rotate(-45.001 280 176.004)"></rect><path fill="#156887" d="M400,175.7L400,175.7h-56v32h50.9c2.8,0,5.1,2.3,5.1,5.1V328H111.8
		c-8.7,0-15.8,7.1-15.8,15.8V360h304h32v-32V207.7C432,190,417.7,175.7,400,175.7z"></path><rect width="464" height="48" x="24" y="440" fill="#47D6C4"></rect><path fill="#156887" d="M440,440H72v-12c0-11,9-20,20-20h328c11,0,20,9,20,20V440z"></path><polygon fill="#47D6C4" points="416 408 288 408 304 312 400 312"></polygon><circle cx="320" cy="191.7" r="48" fill="#BF4C4C"></circle><circle cx="320" cy="191.7" r="16" fill="#156887"></circle><polygon fill="#BF4C4C" points="184 248 208 232 224 248 208 272"></polygon><rect width="45.3" height="45.3" x="337.4" y="73.4" fill="#BF4C4C" transform="rotate(-45.001 360.005 96.004)"></rect></g><g display="none"><rect width="67.9" height="33.9" x="362.1" y="43" fill="#156887" transform="rotate(-45.001 396.001 60.005)"></rect><rect width="181" height="67.9" x="189.5" y="142.1" fill="#156887" transform="rotate(-45.001 280 176.004)"></rect><path fill="#156887" d="M400,175.7L400,175.7h-56v32h50.9c2.8,0,5.1,2.3,5.1,5.1V328H111.8
		c-8.7,0-15.8,7.1-15.8,15.8V360h304h32v-32V207.7C432,190,417.7,175.7,400,175.7z"></path><rect width="464" height="48" x="24" y="440" fill="#47D6C4"></rect><path fill="#156887" d="M440,440H72v-12c0-11,9-20,20-20h328c11,0,20,9,20,20V440z"></path><polygon fill="#47D6C4" points="416 408 288 408 304 312 400 312"></polygon><circle cx="320" cy="191.7" r="48" fill="#BF4C4C"></circle><circle cx="320" cy="191.7" r="16" fill="#156887"></circle><polygon fill="#BF4C4C" points="184 248 208 232 224 248 208 272"></polygon><rect width="45.3" height="45.3" x="337.4" y="73.4" fill="#BF4C4C" transform="rotate(-45.001 360.005 96.004)"></rect><path d="M488,432h-40v-4c0-14.5-11.1-26.4-25.2-27.9l-5.4-32.1H432c4.4,0,8-3.6,8-8V207.7c0-22.1-17.9-40-40-40h-29.4
			c-2.4-5-5.5-9.6-9.2-13.7l12.3-12.3c1.5-1.5,2.3-3.5,2.3-5.7s-0.8-4.2-2.3-5.7l-2.3-2.3l26.3-26.3c1.5-1.5,2.3-3.5,2.3-5.7
			c0-1.3-0.3-2.6-0.9-3.8l38.6-38.6c3.1-3.1,3.1-8.2,0-11.3l-24-24c-3.1-3.1-8.2-3.1-11.3,0l-38.6,38.6c-1.1-0.6-2.4-0.9-3.8-0.9
			c-2.1,0-4.2,0.8-5.7,2.3L328,84.7l-2.3-2.3c-3.1-3.1-8.2-3.1-11.3,0l-128,128c-3.1,3.1-3.1,8.2,0,11.3l9.1,9.1l-15.9,10.6
			c-2,1.3-3.3,3.5-3.5,5.9c-0.2,2.4,0.6,4.8,2.3,6.4l24,24c1.5,1.5,3.5,2.3,5.7,2.3c0.3,0,0.5,0,0.8,0c2.4-0.2,4.5-1.5,5.9-3.5
			l10.6-15.9l9.1,9.1c1.6,1.6,3.6,2.3,5.7,2.3s4.1-0.8,5.7-2.3l36.6-36.6c10,9.1,23.2,14.6,37.7,14.6c22.3,0,41.6-13.1,50.6-32H392
			V304h-88c-3.9,0-7.2,2.8-7.9,6.7l-1.6,9.3H111.8C98.7,320,88,330.7,88,343.8V360c0,4.4,3.6,8,8,8h190.6l-5.3,32H92
			c-15.4,0-28,12.6-28,28v4H24c-4.4,0-8,3.6-8,8v48c0,4.4,3.6,8,8,8h464c4.4,0,8-3.6,8-8v-48C496,435.6,492.4,432,488,432z
			 M408,35.3L420.7,48L388,80.7L375.3,68L408,35.3z M360,75.3L380.7,96L360,116.7L339.3,96L360,75.3z M206.8,259.4l-10.2-10.2
			l10.4-6.9l6.7,6.7L206.8,259.4z M240,252.7l-10.3-10.3c0,0,0,0,0,0l-16-16c0,0,0,0,0,0L203.3,216L320,99.3l2.3,2.3c0,0,0,0,0,0
			l32,32c0,0,0,0,0,0l2.3,2.3l-7.7,7.7c-8.5-5.1-18.4-8.1-28.9-8.1c-30.9,0-56,25.1-56,56c0,10.6,3,20.5,8.1,28.9L240,252.7z
			 M320,231.7c-22.1,0-40-17.9-40-40s17.9-40,40-40s40,17.9,40,40S342.1,231.7,320,231.7z M375.4,199.7c0.4-2.6,0.6-5.3,0.6-8
			c0-2.7-0.2-5.4-0.6-8H400c13.2,0,24,10.8,24,24V352h-9.2l-6.8-40.7v-98.6c0-7.2-5.9-13.1-13.1-13.1H375.4z M104,352v-8.2
			c0-4.3,3.5-7.8,7.8-7.8h180.1l-2.7,16H104z M310.8,320h82.4l13.3,80H297.4L310.8,320z M80,428c0-6.6,5.4-12,12-12h196h128h4
			c6.6,0,12,5.4,12,12v4H80V428z M480,480H32v-32h40h368h40V480z"></path><path d="M320,167.7c-13.2,0-24,10.8-24,24s10.8,24,24,24s24-10.8,24-24S333.2,167.7,320,167.7z M320,199.7c-4.4,0-8-3.6-8-8
			s3.6-8,8-8s8,3.6,8,8S324.4,199.7,320,199.7z"></path></g></svg>