<svg xmlns="http://www.w3.org/2000/svg" viewBox="0 0 64 64" id="protection"><rect width="8" height="22" x="2" y="40" fill="#603813"></rect><path fill="#70492a" d="M4,52a8,8,0,0,0,6,7.738V40H4Z"></path><path fill="#e2b2aa" d="M10,44l4.046-2.529A16.259,16.259,0,0,1,22.663,39h0a16.241,16.241,0,0,1,6.4,1.315h0A20.85,20.85,0,0,0,37.279,42H42a3,3,0,0,1,3,3h0l12.231-4.7a4.425,4.425,0,0,1,1.593-.3h0A3.176,3.176,0,0,1,62,43.176h0a3.176,3.176,0,0,1-1.576,2.743L42.036,56.646A17.279,17.279,0,0,1,33.328,59h0a17.292,17.292,0,0,1-6.418-1.236l-5.437-2.175A8.245,8.245,0,0,0,18.413,55h0a8.24,8.24,0,0,0-5.826,2.413L10,60"></path><path fill="#ffe2d5" d="M60.967,40.845A3.156,3.156,0,0,0,58.824,40h0a4.425,4.425,0,0,0-1.593.3L45,45a2.985,2.985,0,0,0-.832-2.065c-.06-.063-.127-.119-.192-.177A2.98,2.98,0,0,0,42,42H37.279a20.85,20.85,0,0,1-8.212-1.685,16.256,16.256,0,0,0-15.021,1.156L10,44V57l1.587-1.587a8.241,8.241,0,0,1,8.886-1.824l5.437,2.175a17.282,17.282,0,0,0,15.126-1.118L59.424,43.919A3.176,3.176,0,0,0,61,41.176h0A3.283,3.283,0,0,0,60.967,40.845Z"></path><path fill="#20962b" d="M32,39l0,0A31.914,31.914,0,0,1,15,10.791V7h0a5,5,0,0,0,5-5H44a5,5,0,0,0,5,5h0v3.791A31.914,31.914,0,0,1,32.005,39Z"></path><path fill="#55c660" d="M32,35l-1.9-1.464A28.432,28.432,0,0,1,19,11h0l4-5H41l4,5h0A28.432,28.432,0,0,1,33.9,33.536Z"></path><path fill="#84d88a" d="M41,6H23.6L22,8A28.432,28.432,0,0,0,33.1,30.536L35,32l1.9-1.464c.4-.308.79-.629,1.171-.956A28.422,28.422,0,0,0,45,11Z"></path><polygon fill="#fff" points="30 27 42 14 39 11 30 21 27 18 24 21 30 27"></polygon><path d="M58.824,39a5.4,5.4,0,0,0-1.952.363L45.761,43.636A4.008,4.008,0,0,0,42,41H37.279a19.745,19.745,0,0,1-7.818-1.6,17.431,17.431,0,0,0-15.945,1.227L11,42.2V40a1,1,0,0,0-1-1H2a1,1,0,0,0-1,1V62a1,1,0,0,0,1,1h8a1,1,0,0,0,1-1V60.414l2.293-2.293a7.24,7.24,0,0,1,7.809-1.6l5.437,2.175a18.479,18.479,0,0,0,16-1.183L60.928,46.783A4.176,4.176,0,0,0,58.824,39ZM9,61H3V41H9ZM59.92,45.055,41.532,55.782a16.449,16.449,0,0,1-14.25,1.053l-5.438-2.174a9.238,9.238,0,0,0-9.965,2.046L11,57.586V44.554l3.576-2.235a15.418,15.418,0,0,1,14.1-1.086A21.71,21.71,0,0,0,37.279,43H42a2,2,0,0,1,0,4H29v2H42a4,4,0,0,0,3.928-3.285L57.59,41.229A3.422,3.422,0,0,1,58.824,41a2.175,2.175,0,0,1,1.1,4.055Z"></path><path d="M45,2a1,1,0,0,0-1-1H20a1,1,0,0,0-1,1,4,4,0,0,1-4,4,1,1,0,0,0-1,1v3.791a32.855,32.855,0,0,0,17.459,29.05,1.024,1.024,0,0,0,.557.186.809.809,0,0,0,.456-.146A32.831,32.831,0,0,0,50,10.791V7a1,1,0,0,0-1-1A4,4,0,0,1,45,2Zm3,8.791A30.818,30.818,0,0,1,32,37.867,30.838,30.838,0,0,1,16,10.791V7.917A6.017,6.017,0,0,0,20.917,3H43.083A6.017,6.017,0,0,0,48,7.917Z"></path><path d="M41,5H23a1,1,0,0,0-.781.375l-4,5A1,1,0,0,0,18,11,29.617,29.617,0,0,0,29.487,34.329l1.9,1.463a1,1,0,0,0,1.22,0l1.9-1.463A29.617,29.617,0,0,0,46,11a1,1,0,0,0-.219-.625l-4-5A1,1,0,0,0,41,5ZM33.293,32.744,32,33.738l-1.293-.994A27.609,27.609,0,0,1,20,11.348L23.48,7H40.52L44,11.348A27.609,27.609,0,0,1,33.293,32.744Z"></path><path d="M38.974,10a1,1,0,0,0-.717.331l-8.295,9.216-2.255-2.254a1,1,0,0,0-1.414,0l-3,3a1,1,0,0,0,0,1.414l6,6A1,1,0,0,0,30,28h.02a1,1,0,0,0,.715-.322l12-13a1,1,0,0,0-.028-1.385l-3-3A.942.942,0,0,0,38.974,10Zm-9,15.557L25.414,21,27,19.414l2.293,2.293a.973.973,0,0,0,.733.293,1,1,0,0,0,.717-.331l8.295-9.216,1.575,1.575Z"></path></svg>