<svg xmlns="http://www.w3.org/2000/svg" viewBox="0 0 128 128" id="surgeon"><circle cx="34.5" cy="44.5" r="1.5"></circle><circle cx="55.5" cy="44.5" r="1.5"></circle><path d="M79.476 81.597 58 75.64v-7.207c3.873-3.065 6.641-7.445 7.61-12.464C70.288 55.653 74 51.756 74 47a8.953 8.953 0 0 0-2-5.644V12.541c0-3.995-2.562-7.455-6.377-8.611C61.213 2.593 54.055 1 45 1S28.787 2.593 24.377 3.93C20.562 5.086 18 8.546 18 12.541v28.815A8.955 8.955 0 0 0 16 47c0 4.727 3.665 8.606 8.302 8.965A20.387 20.387 0 0 0 32 68.762v6.878l-21.476 5.957C4.917 83.153 1 88.304 1 94.124V127h88V94.124c0-5.82-3.917-10.971-9.524-12.527zM61.629 61.151l-1.406-10.548a2.986 2.986 0 0 0-.652-1.496L64 45.943V52c0 3.316-.863 6.434-2.371 9.151zM51 38c-1.654 0-3 1.346-3 3v7h-6v-7c0-1.654-1.346-3-3-3H29v2h10c.552 0 1 .449 1 1v7h-7.249c-.13 0-.255.019-.381.035L26 43.485V36h38v7.485l-6.37 4.55c-.126-.016-.251-.035-.381-.035H50v-7c0-.551.448-1 1-1h10v-2H51zm19-8v4H20v-4h50zm-4 8.059V36h4v3.522a8.931 8.931 0 0 0-4-1.463zM24 36v2.059a8.931 8.931 0 0 0-4 1.463V36h4zm41.901 17.935C65.96 53.297 66 52.653 66 52V40.08c3.386.488 6 3.401 6 6.92 0 3.554-2.664 6.491-6.099 6.935zM24.957 5.844C29.238 4.547 36.19 3 45 3s15.762 1.547 20.043 2.844A6.953 6.953 0 0 1 70 12.541V28h-6V18h-2v10h-4V18h-2v10h-4V18h-2v10h-4V18h-2v10h-4V18h-2v10h-4V18h-2v10h-4V18h-2v10h-6V12.541a6.953 6.953 0 0 1 4.957-6.697zM18 47c0-3.519 2.614-6.432 6-6.92V52.6c0 .449.039.889.067 1.331C20.648 53.472 18 50.543 18 47zm8-1.057 4.43 3.164c-.342.418-.577.93-.652 1.496l-1.456 10.92A18.265 18.265 0 0 1 26 52.6v-6.657zm4.005 18.085 1.755-13.16c.066-.494.492-.868.991-.868h24.498c.499 0 .925.374.991.868l1.706 12.795C56.448 68.119 51.013 71 44.902 71H44.4c-5.828 0-11.021-2.731-14.395-6.972zM44.4 73h.502c4.074 0 7.869-1.175 11.098-3.174V75.5l-11 8.25-11-8.25v-5.382A20.244 20.244 0 0 0 44.4 73zm-11.216 4.388L45 86.25l11.816-8.862 4.695 1.302L45 91.726 28.489 78.69l4.695-1.302zM11.06 83.524l.426-.118 3.44 8.601A28.886 28.886 0 0 1 17 102.777V116H3V94.124c0-4.925 3.314-9.283 8.06-10.6zM3 118h14v7H3v-7zm16 7v-22.223c0-3.96-.746-7.834-2.217-11.513l-3.359-8.396 12.674-3.516L45 94.274l18.901-14.922 12.674 3.516-3.359 8.396A30.896 30.896 0 0 0 71 102.777V125H19zm54 0v-7h14v7H73zm14-9H73v-13.223c0-3.705.698-7.328 2.074-10.771l3.44-8.601.426.118c4.745 1.316 8.06 5.675 8.06 10.6V116z"></path><path d="M26 14h2v2h-2zM32 14h2v2h-2zM38 14h2v2h-2zM44 14h2v2h-2zM50 14h2v2h-2zM56 14h2v2h-2zM62 14h2v2h-2zM26 10h2v2h-2zM32 10h2v2h-2zM38 10h2v2h-2zM44 10h2v2h-2zM50 10h2v2h-2zM56 10h2v2h-2zM62 10h2v2h-2zM110.236 52 109 51.382V48c0-1.654-1.346-3-3-3h-1V27.764L102.618 23H99v22h-1c-1.654 0-3 1.346-3 3v3.382L93.764 52A4.973 4.973 0 0 0 91 56.472V101h6v16h-3c-1.654 0-3 1.346-3 3s1.346 3 3 3h16c1.654 0 3-1.346 3-3s-1.346-3-3-3h-3v-16h6V56.472A4.973 4.973 0 0 0 110.236 52zM101 25h.382L103 28.236V45h-2V25zm-3 22h8c.552 0 1 .449 1 1v3H97v-3c0-.551.448-1 1-1zm13 73a1 1 0 0 1-1 1H94a1 1 0 0 1 0-2h16a1 1 0 0 1 1 1zm-6-3h-6v-16h6v16zm6-18H93V56.472c0-1.144.636-2.172 1.658-2.683L96.236 53h11.527l1.578.789a2.985 2.985 0 0 1 1.658 2.683V99z"></path><path d="M105 89h4v2h-4zM103 85h6v2h-6zM103 93h6v2h-6zM105 81h4v2h-4zM103 77h6v2h-6zM105 73h4v2h-4zM103 69h6v2h-6zM105 65h4v2h-4zM103 61h6v2h-6zM127 51v-5.917c0-6.141-1.8-12.087-5.206-17.196l-2.575-3.862a2.296 2.296 0 0 0-1.916-1.026A2.305 2.305 0 0 0 115 25.302V51c0 1.771.776 3.36 2 4.46v5.725A2.995 2.995 0 0 0 115 64v53c0 3.309 2.691 6 6 6s6-2.691 6-6V63.999a2.995 2.995 0 0 0-2-2.815V55.46c1.224-1.1 2-2.689 2-4.46zm-10-25.697a.303.303 0 0 1 .555-.168l2.575 3.862A28.901 28.901 0 0 1 125 45.083V51c0 2.206-1.794 4-4 4s-4-1.794-4-4V25.303zM125 117c0 2.206-1.794 4-4 4s-4-1.794-4-4V63.999a1 1 0 0 1 .999-.999h6.002a1 1 0 0 1 .999.999V117zm-2-56h-4v-4.35c.627.223 1.298.35 2 .35s1.373-.128 2-.35V61z"></path><path d="M121 65h2v2h-2zM121 69h2v2h-2zM121 73h2v2h-2z"></path></svg>